<?xml version="1.0" encoding="utf-8"?><!DOCTYPE svg PUBLIC "-//W3C//DTD SVG 1.1//EN" "http://www.w3.org/Graphics/SVG/1.1/DTD/svg11.dtd"><svg viewBox="0 0 513.64 513.64" xmlns="http://www.w3.org/2000/svg" xmlns:xlink="http://www.w3.org/1999/xlink"><style>:root>svg{display:none}:root>svg:target{display:block}</style><svg viewBox="0 0 462 462" id="burger" xmlns="http://www.w3.org/2000/svg"><path d="M181.5 0h-165C7.38 0 0 7.38 0 16.5v165c0 9.12 7.38 16.5 16.5 16.5h165c9.12 0 16.5-7.38 16.5-16.5v-165C198 7.38 190.62 0 181.5 0zM165 165H33V33h132zM181.5 264h-165C7.38 264 0 271.38 0 280.5v165c0 9.12 7.38 16.5 16.5 16.5h165c9.12 0 16.5-7.38 16.5-16.5v-165c0-9.12-7.38-16.5-16.5-16.5zM165 429H33V297h132zM445.5 264h-165c-9.12 0-16.5 7.38-16.5 16.5v165c0 9.12 7.38 16.5 16.5 16.5h165c9.12 0 16.5-7.38 16.5-16.5v-165c0-9.12-7.38-16.5-16.5-16.5zM429 429H297V297h132zM457.166 143.666c6.445-6.445 6.445-16.887 0-23.332l-115.5-115.5c-6.445-6.445-16.887-6.445-23.332 0l-115.5 115.5C199.611 123.557 198 127.778 198 132s1.611 8.443 4.834 11.666l115.5 115.5C321.557 262.389 325.778 264 330 264s8.443-1.611 11.666-4.834l115.5-115.5zM237.832 132L330 39.832 422.168 132 330 224.168 237.832 132z"/></svg><svg viewBox="0 0 512 512" id="email" xmlns="http://www.w3.org/2000/svg"><path d="M467 61H45c-6.927 0-13.412 1.703-19.279 4.51L255 294.789l51.389-49.387.005-.007.005-.004L486.286 65.514C480.418 62.705 473.929 61 467 61zM507.496 86.728L338.213 256.002 507.49 425.279c2.807-5.867 4.51-12.352 4.51-19.279V106c0-6.923-1.699-13.407-4.504-19.272zM4.51 86.721C1.703 92.588 0 99.073 0 106v300c0 6.923 1.701 13.409 4.506 19.274L173.789 256 4.51 86.721z"/><path d="M317.002 277.213l-51.396 49.393c-2.93 2.93-6.768 4.395-10.605 4.395s-7.676-1.465-10.605-4.395L195 277.211 25.714 446.486C31.582 449.295 38.071 451 45 451h422c6.927 0 13.412-1.703 19.279-4.51L317.002 277.213z"/></svg><svg viewBox="0 0 96.124 96.123" id="facebook-logo" xmlns="http://www.w3.org/2000/svg"><path d="M72.089.02L59.624 0C45.62 0 36.57 9.285 36.57 23.656v10.907H24.037a1.96 1.96 0 00-1.96 1.961v15.803a1.96 1.96 0 001.96 1.96H36.57v39.876a1.96 1.96 0 001.96 1.96h16.352a1.96 1.96 0 001.96-1.96V54.287h14.654a1.96 1.96 0 001.96-1.96l.006-15.803a1.963 1.963 0 00-1.961-1.961H56.842v-9.246c0-4.444 1.059-6.7 6.848-6.7l8.397-.003a1.96 1.96 0 001.959-1.96V1.98A1.96 1.96 0 0072.089.02z"/></svg><svg viewBox="0 0 64 64" id="fast-delivery" xmlns="http://www.w3.org/2000/svg"><path d="M7 37h2v2H7zM2 41h2v2H2zM6 12h12v2H6zM2 12h2v2H2zM8 16h2v2H8zM55.633 26.188A20.795 20.795 0 0160 39c0 11.579-9.42 21-21 21-10.452 0-19.396-7.797-20.807-18.135a.998.998 0 00-.99-.865H6v2h10.347C18.259 53.892 27.846 62 39 62c12.682 0 23-10.317 23-23 0-5.125-1.654-9.979-4.784-14.035z"/><path d="M21 39c0 9.925 8.075 18 18 18s18-8.075 18-18c0-7.444-4.543-13.848-11.002-16.584l3.709-3.709A.996.996 0 0050 18V3h-.009a.977.977 0 00-.067-.383A1 1 0 0049 2H29a.997.997 0 00-.707.293l-3.999 3.999A.994.994 0 0024 7v9H12v2h12v3.574A23.03 23.03 0 0016.086 37H11v2h6.022a1 1 0 00.999-.955A21.02 21.02 0 0125.408 23h5.383C24.987 25.991 21 32.033 21 39zm25-19.414V7.414l2-2v12.172zM44.586 6h-7.172l2-2h7.172zM29.414 4h7.172l-2 2h-7.172zM26 21V8h8v5h2V8h8v13zm4.154 4.679l1.974 3.418 1.732-1-1.969-3.411A15.855 15.855 0 0138 23.05V27h2v-3.949c2.184.136 4.247.708 6.109 1.636l-1.974 3.418 1.732 1 1.978-3.426a16.117 16.117 0 014.475 4.475l-3.427 1.978 1 1.732 3.419-1.974a15.872 15.872 0 011.636 6.109H51v2h3.949a15.872 15.872 0 01-1.636 6.109l-3.419-1.974-1 1.732 3.427 1.978a16.117 16.117 0 01-4.475 4.475l-1.978-3.426-1.732 1 1.974 3.418a15.867 15.867 0 01-6.108 1.636V51h-2v3.949a15.872 15.872 0 01-6.109-1.636l1.969-3.411-1.732-1-1.974 3.418a16.103 16.103 0 01-4.475-4.475l3.427-1.978-1-1.732-3.419 1.974A15.872 15.872 0 0123.053 40H27v-2h-3.949a15.872 15.872 0 011.636-6.109l3.419 1.974 1-1.732-3.427-1.978a16.147 16.147 0 014.475-4.476z"/><path d="M39 43c2.206 0 4-1.794 4-4 0-.74-.215-1.424-.567-2.019l4.274-4.274-1.414-1.414-4.273 4.274A3.954 3.954 0 0039 35c-2.206 0-4 1.794-4 4s1.794 4 4 4zm0-6c1.103 0 2 .897 2 2s-.897 2-2 2-2-.897-2-2 .897-2 2-2zM52.285 22.71l1.414-1.414 2 2-1.414 1.414z"/></svg><svg viewBox="0 0 510.222 510.222" id="geo" xmlns="http://www.w3.org/2000/svg"><path d="M406.478 62.747c-83.658-83.658-219.067-83.667-302.734 0-83.656 83.655-83.669 219.067 0 302.734l140.054 140.054c6.249 6.249 16.379 6.248 22.627 0l140.054-140.054c83.655-83.655 83.668-219.066-.001-302.734zm-83.7 219.033c-37.395 37.396-97.93 37.404-135.334 0-37.397-37.397-37.403-97.93 0-135.332 37.394-37.396 97.93-37.403 135.333 0 37.397 37.395 37.403 97.93.001 135.332z"/></svg><svg viewBox="0 0 512 512" id="linkedin" xmlns="http://www.w3.org/2000/svg"><path d="M17.813 161.387h112.571V512H17.813zM74.099 0C38.755 0 10 28.755 10 64.099c0 35.345 28.755 64.1 64.099 64.1 35.345 0 64.1-28.755 64.1-64.1C138.198 28.755 109.443 0 74.099 0zM501.965 267.242c-1.486-65.345-54.977-116.531-121.775-116.531-36.983 0-71.326 16.389-94.361 44.446v-33.771h-107.03V512h112.572V309.333c0-27.002 21.968-48.97 48.97-48.97 27.001 0 48.969 21.965 48.969 48.972L389.43 512H502z"/></svg><svg viewBox="0 0 512.005 512.005" id="loupe" xmlns="http://www.w3.org/2000/svg"><path d="M505.749 475.587l-145.6-145.6c28.203-34.837 45.184-79.104 45.184-127.317C405.333 90.926 314.41.003 202.666.003S0 90.925 0 202.669s90.923 202.667 202.667 202.667c48.213 0 92.48-16.981 127.317-45.184l145.6 145.6c4.16 4.16 9.621 6.251 15.083 6.251s10.923-2.091 15.083-6.251c8.341-8.341 8.341-21.824-.001-30.165zM202.667 362.669c-88.235 0-160-71.765-160-160s71.765-160 160-160 160 71.765 160 160-71.766 160-160 160z"/></svg><svg viewBox="0 0 511.999 511.999" id="money" xmlns="http://www.w3.org/2000/svg"><path d="M316.209 117.615h.598c.001 0-.465-1.17-.598 0zM171.747 117.615h.598c-.133-1.17-.598 0-.598 0z"/><path d="M460.496 154.447a23.52 23.52 0 00-14.761-10.506l-32.457-7.458 14.986-4.195c12.417-3.475 19.898-16.737 16.417-29.177-3.476-12.417-16.736-19.896-29.178-16.417l-69.876 19.557A23.83 23.83 0 00338.105 98c14.181-26.391 34.612-71.176 34.612-90.443 0-4.699-4.442-8.335-9.051-7.406-27.731 5.602-53.586 8.187-79.011 7.91-26.134-.287-58.659-3.533-79.095-7.893-6.318-1.348-11.388 5.722-8.056 11.276 4.98 8.3 8.031 17.076 9.708 25.921-25.649.786-52.248-2.322-72.38-12.389-5.423-2.712-11.824 2.033-10.832 8 6.332 37.987 19.106 60.259 31.913 77.086h-.284c-13.053 0-23.673 10.62-23.673 23.673 0 12.005 8.985 21.944 20.581 23.465-8.453 14.158-20.525 27.591-33.209 41.687-26.973 29.976-57.546 63.952-67.832 118.811-4.922 26.249-4.758 50.81.489 73.002 4.898 20.718 14.227 39.471 27.726 55.737 17.919 21.592 42.538 38.345 73.172 49.797 27.595 10.315 59.198 15.767 91.394 15.767 32.196 0 63.8-5.452 91.394-15.767 30.634-11.452 55.253-28.206 73.172-49.797 13.499-16.266 22.828-35.018 27.726-55.737 5.246-22.192 5.411-46.754.489-73.002-10.286-54.858-40.858-88.834-67.831-118.81-9.157-10.177-17.869-19.88-25.173-29.728l91.079 20.926c9.649 2.217 19.931-2.004 25.261-10.342 4.878-7.634 4.907-17.629.102-25.297zM284.489 23.17c23.263.254 46.807-1.78 71.676-6.212-4.56 18.643-19.203 51.801-33.092 77.06-9.625.725-17.659 7.227-20.637 16.043H281.46c-.474-1.021-.999-2.14-1.584-3.383-6.486-13.788-19.984-42.478-19.984-66.886 0-4.692-4.431-8.33-9.037-7.408-8.792 1.759-18.465 3.182-28.53 4.074-1.055-6.304-2.692-12.618-5.072-18.828 20.3 3.142 45.871 5.305 67.236 5.54zm48.94 94.445v32.236c0 4.721-3.841 8.563-8.563 8.563s-8.563-3.841-8.563-8.563v-32.236c0-4.722 3.841-8.563 8.563-8.563s8.563 3.842 8.563 8.563zM141.612 44.107c18.888 6.447 42.123 9.306 67.216 8.424l14.974-.946a284.695 284.695 0 0021.448-2.802c2.356 23.374 13.034 47.392 19.522 61.278H175.195a7.726 7.726 0 00-.556-.773c-12.637-15.203-25.46-32.788-33.027-65.181zm216.382 164.886c25.645 28.498 54.708 60.798 64.214 111.487 8.747 46.652.338 85.782-24.993 116.303-31.234 37.635-88.407 60.105-152.937 60.105S122.574 474.419 91.34 436.784c-25.331-30.521-33.739-69.651-24.993-116.303 9.505-50.69 38.57-82.991 64.214-111.488 15.333-17.041 29.819-33.159 39.103-51.586h18.452a7.554 7.554 0 007.555-7.555 7.554 7.554 0 00-7.555-7.555h-32.488c-4.722 0-8.563-3.841-8.563-8.563s3.841-8.563 8.563-8.563h145.564v17.125h-77.064a7.555 7.555 0 000 15.11h78.307c3.161 9.358 12.018 16.118 22.43 16.118 1.203 0 2.383-.092 3.539-.265 8.432 12.197 18.71 23.644 29.59 35.734zm-9.454-87.866l71.035-19.881c4.498-1.261 9.298 1.449 10.554 5.938 1.258 4.499-1.447 9.297-5.938 10.553l-40.596 11.362a7.506 7.506 0 00-.954.346l-34.101-7.835v-.483zm100.239 47.802c-1.058 4.602-5.654 7.487-10.263 6.428l-90.451-20.782a23.73 23.73 0 00.474-4.725v-12.738l93.811 21.554c4.547 1.045 7.474 5.712 6.429 10.263z"/><path d="M292.631 310.526c10.831 0 19.644-8.812 19.644-19.644v-12.088c0-28.268-21.084-51.702-48.354-55.4v-13.101c0-10.831-8.812-19.644-19.644-19.644-10.831 0-19.644 8.812-19.644 19.644v14.101c-27.997 6.245-48.354 31.134-48.354 60.444 0 34.161 27.792 61.953 61.953 61.953h12.088c12.497 0 22.666 10.167 22.666 22.666s-10.168 22.666-22.666 22.666h-18.133c-9.166 0-16.622-7.457-16.622-16.622 0-10.831-8.812-19.644-19.644-19.644-10.831 0-19.644 8.812-19.644 19.644 0 28.268 21.084 51.702 48.354 55.4v13.101c0 10.831 8.812 19.644 19.644 19.644 10.831 0 19.644-8.812 19.644-19.644v-14.101c27.997-6.245 48.354-31.134 48.354-60.444 0-34.161-27.792-61.953-61.953-61.953h-12.088c-12.497 0-22.666-10.167-22.666-22.666s10.168-22.666 22.666-22.666h18.133c9.166 0 16.622 7.457 16.622 16.622v12.088c0 10.831 8.813 19.644 19.644 19.644zm-36.265-63.464h-18.133c-20.83 0-37.776 16.946-37.776 37.776 0 20.83 16.946 37.776 37.776 37.776h12.088c25.83 0 46.843 21.014 46.843 46.843 0 23.899-17.899 43.908-41.632 46.545a7.555 7.555 0 00-6.721 7.509v20.491c0 2.499-2.034 4.533-4.533 4.533s-4.533-2.034-4.533-4.533v-20.147a7.554 7.554 0 00-7.555-7.555c-22.497 0-40.798-18.302-40.798-40.798 0-2.499 2.034-4.533 4.533-4.533s4.533 2.034 4.533 4.533c0 17.497 14.235 31.732 31.732 31.732h18.133c20.83 0 37.776-16.946 37.776-37.776s-16.946-37.776-37.776-37.776h-12.088c-25.83 0-46.843-21.014-46.843-46.843 0-23.899 17.899-43.908 41.632-46.545a7.555 7.555 0 006.721-7.509v-20.491c0-2.499 2.034-4.533 4.533-4.533s4.533 2.034 4.533 4.533v20.147a7.554 7.554 0 007.555 7.555c22.497 0 40.798 18.302 40.798 40.798v12.088c0 2.499-2.034 4.533-4.533 4.533s-4.533-2.034-4.533-4.533v-12.088c0-17.497-14.235-31.732-31.732-31.732z"/></svg><svg viewBox="0 0 513.64 513.64" id="phone-call" xmlns="http://www.w3.org/2000/svg"><path d="M499.66 376.96l-71.68-71.68c-25.6-25.6-69.12-15.359-79.36 17.92-7.68 23.041-33.28 35.841-56.32 30.72-51.2-12.8-120.32-79.36-133.12-133.12-7.68-23.041 7.68-48.641 30.72-56.32 33.28-10.24 43.52-53.76 17.92-79.36l-71.68-71.68c-20.48-17.92-51.2-17.92-69.12 0L18.38 62.08c-48.64 51.2 5.12 186.88 125.44 307.2s256 176.641 307.2 125.44l48.64-48.64c17.921-20.48 17.921-51.2 0-69.12z"/></svg><svg viewBox="0 0 512 512" id="price-tag" xmlns="http://www.w3.org/2000/svg"><path d="M449.068 388a7.5 7.5 0 007.5-7.5v-180c0-8.952-3.489-18.109-9.824-25.784l-55.623-67.394a43.985 43.985 0 00-9.902-8.877c.223-2.292.35-4.607.35-6.944v-84a7.5 7.5 0 00-15 0s-.015 84.715-.021 85.073a37.133 37.133 0 00-6.479-.573h-97c-6.829 0-13.523 1.916-19.516 5.437a7.6 7.6 0 00-.768.32l-73.111 35.612a39.187 39.187 0 00-18.24 19.189c-.04.091-.078.182-.114.274l-30.228 76.672a7.501 7.501 0 0013.955 5.502l30.169-76.524c2.269-5.069 6.236-9.222 11.105-11.666l38.628-18.815-38.556 46.715c-5.773 6.994-8.824 15.911-8.824 25.785v259c0 3.016.265 5.969.746 8.847l-77.282-34.244c-17.458-7.735-25.37-28.282-17.634-45.802l.097-.229 48.883-121.484a7.5 7.5 0 00-13.916-5.6l-48.84 121.371c-10.982 25.05.362 54.392 25.333 65.456l90.624 40.156c.111.049.224.085.336.128 9.198 14.372 25.1 23.899 43.153 23.899h185c28.458 0 52.5-24.042 52.5-52.5v-44a7.5 7.5 0 00-15 0v44c0 20.327-17.173 37.5-37.5 37.5h-185c-20.126 0-36.5-16.822-36.5-37.5v-259c0-6.438 1.814-11.901 5.393-16.236l55.623-67.394c5.177-6.272 12.279-9.87 19.484-9.87h97c1.413 0 2.821.143 4.212.413-4.695 16.011-16.325 29.371-32.03 36.066C328.144 136.61 320.636 132 312.068 132c-12.958 0-23.5 10.542-23.5 23.5s10.542 23.5 23.5 23.5c11.983 0 21.893-9.018 23.318-20.623 20.199-7.64 35.473-23.828 42.278-43.587a30.37 30.37 0 011.889 2.08l55.623 67.395c4.122 4.994 6.393 10.76 6.393 16.236v180a7.498 7.498 0 007.499 7.499zm-137-224c-4.687 0-8.5-3.813-8.5-8.5s3.813-8.5 8.5-8.5 8.5 3.813 8.5 8.5-3.813 8.5-8.5 8.5z"/><path d="M247.068 399a7.474 7.474 0 005.303-2.197l128-128a7.5 7.5 0 000-10.606 7.5 7.5 0 00-10.606 0l-128 128c-4.782 4.457-1.113 13.03 5.303 12.803zM263.068 320c17.92 0 32.5-14.58 32.5-32.5s-14.58-32.5-32.5-32.5h-1c-17.92 0-32.5 14.58-32.5 32.5s14.58 32.5 32.5 32.5zm-18.5-32.5c0-9.649 7.851-17.5 17.5-17.5h1c9.649 0 17.5 7.851 17.5 17.5s-7.851 17.5-17.5 17.5h-1c-9.649 0-17.5-7.851-17.5-17.5zM360.068 399h1c17.92 0 32.5-14.58 32.5-32.5s-14.58-32.5-32.5-32.5h-1c-17.92 0-32.5 14.58-32.5 32.5s14.58 32.5 32.5 32.5zm0-50h1c9.649 0 17.5 7.851 17.5 17.5s-7.851 17.5-17.5 17.5h-1c-9.649 0-17.5-7.851-17.5-17.5s7.851-17.5 17.5-17.5z"/></svg><svg viewBox="0 -10 511.991 511" id="star" xmlns="http://www.w3.org/2000/svg"><path d="M510.652 185.883a27.177 27.177 0 00-23.402-18.688l-147.797-13.418-58.41-136.75C276.73 6.98 266.918.497 255.996.497s-20.738 6.483-25.023 16.53l-58.41 136.75-147.82 13.418c-10.837 1-20.013 8.34-23.403 18.688a27.25 27.25 0 007.937 28.926L121 312.773 88.059 457.86c-2.41 10.668 1.73 21.7 10.582 28.098a27.087 27.087 0 0015.957 5.184 27.14 27.14 0 0013.953-3.86l127.445-76.203 127.422 76.203a27.197 27.197 0 0029.934-1.324c8.851-6.398 12.992-17.43 10.582-28.098l-32.942-145.086 111.723-97.964a27.246 27.246 0 007.937-28.926zM258.45 409.605"/></svg><svg viewBox="0 -47 512.002 512" id="twitter" xmlns="http://www.w3.org/2000/svg"><path d="M191.012 419.043c-22.14 0-44.93-1.793-67.856-5.387-40.379-6.336-81.254-27.457-92.82-33.781L0 363.289l32.844-10.8c35.902-11.805 57.742-19.13 84.777-30.598-27.07-13.11-47.933-36.692-57.976-67.176l-7.641-23.195 6.266.957A113.939 113.939 0 0144 214.883c-12.934-19.645-19.781-43.649-18.324-64.219l1.437-20.246 12.121 4.695a113.316 113.316 0 01-10.98-30.777c-5.293-26.36-.863-54.363 12.476-78.852L51.29 6.102l14.12 16.96c44.66 53.649 101.227 85.473 168.363 94.79-2.742-18.903-.687-37.145 6.114-53.497 7.918-19.039 22.004-35.183 40.722-46.69 20.79-12.778 46-18.97 70.989-17.435 26.511 1.63 50.582 11.563 69.699 28.747 9.336-2.426 16.215-5.016 25.512-8.516 5.593-2.106 11.937-4.496 19.875-7.23l29.25-10.079-19.075 54.477a96.355 96.355 0 013.91-.254l31.235-1.414-18.461 25.23c-1.059 1.446-1.328 1.856-1.703 2.422-1.488 2.242-3.34 5.032-28.68 38.867-6.344 8.473-9.512 19.508-8.922 31.079 2.246 43.968-3.148 83.75-16.043 118.234-12.195 32.625-31.093 60.617-56.164 83.2-31.023 27.937-70.582 47.066-117.582 56.847-23.054 4.797-47.812 7.203-73.437 7.203zm0 0"/></svg></svg>